<svg width="62" height="61" viewBox="0 0 62 61" fill="none" xmlns="http://www.w3.org/2000/svg">
<g clip-path="url(#clip0_45_232)">
<path d="M30.6434 7.625C35.9046 7.625 40.1746 11.895 40.1746 17.1562C40.1746 22.4175 35.9046 26.6875 30.6434 26.6875C25.3821 26.6875 21.1121 22.4175 21.1121 17.1562C21.1121 11.895 25.3821 7.625 30.6434 7.625ZM30.6434 3.8125C23.2662 3.8125 17.2996 9.77906 17.2996 17.1562C17.2996 24.5334 23.2662 30.5 30.6434 30.5C38.0206 30.5 43.9871 24.5334 43.9871 17.1562C43.9871 9.77906 38.0206 3.8125 30.6434 3.8125Z" fill="black"/>
<path d="M49.7059 57.1875H45.8934V47.6562C45.8934 42.395 41.6234 38.125 36.3621 38.125H24.9246C19.6634 38.125 15.3934 42.395 15.3934 47.6562V57.1875H11.5809V47.6562C11.5809 40.2981 17.5665 34.3125 24.9246 34.3125H36.3621C43.7202 34.3125 49.7059 40.2981 49.7059 47.6562V57.1875Z" fill="black"/>
</g>
<defs>
<clipPath id="clip0_45_232">
<rect width="61" height="61" fill="white" transform="translate(0.143372)"/>
</clipPath>
</defs>
</svg>
