<svg width="61" height="55" viewBox="0 0 61 55" fill="none" xmlns="http://www.w3.org/2000/svg">
<path d="M27.1553 47.9141C28.8572 47.9141 30.2764 49.3661 30.2764 51.207C30.2763 53.0479 28.8572 54.5 27.1553 54.5C25.4536 54.4997 24.0352 53.0477 24.0352 51.207C24.0352 49.3663 25.4536 47.9143 27.1553 47.9141ZM48.8799 47.9141C50.5818 47.9141 52.001 49.3661 52.001 51.207C52.0009 53.0479 50.5818 54.5 48.8799 54.5C47.1782 54.4997 45.7598 53.0477 45.7598 51.207C45.7598 49.3662 47.1781 47.9143 48.8799 47.9141ZM1.81055 0.5H8.03516C10.2111 0.5 12.1394 2.00483 12.7617 4.20996L12.8184 4.42578L13.5996 7.70215L13.6914 8.08594H55.5684C58.4511 8.08621 60.7329 10.6887 60.4814 13.7188L60.4492 14.0127L57.8623 32.9785C57.5116 35.5514 55.4169 37.4307 52.9814 37.4307H20.7178L20.582 37.7158L20.0811 38.7637C19.337 40.3225 20.402 42.2246 22.1523 42.2246H52.501C53.2029 42.2246 53.8115 42.8278 53.8115 43.6211C53.8113 44.4142 53.2028 45.0176 52.501 45.0176H22.1523C18.6331 45.0176 16.236 41.2319 17.6016 37.8271L17.7451 37.499L18.4316 36.0615L18.5117 35.8945L18.4629 35.7148L11.4062 9.8418L10.2783 5.11328C10.0265 4.05847 9.1118 3.29297 8.03516 3.29297H1.81055C1.10851 3.29297 0.5 2.68993 0.5 1.89648C0.500034 1.10307 1.10853 0.5 1.81055 0.5ZM14.5908 11.5107L20.7979 34.2695L20.8975 34.6377H52.9814C54.0768 34.6377 54.9899 33.8499 55.2305 32.792L55.2695 32.5771L57.8555 13.6113C58.0483 12.1954 56.999 10.8792 55.5684 10.8789H14.418L14.5908 11.5107Z" fill="black" stroke="black"/>
</svg>
