<svg width="64" height="65" viewBox="0 0 64 65" fill="none" xmlns="http://www.w3.org/2000/svg">
<path d="M57.7304 32.4029L62.9293 25.1747C63.0726 24.9799 63.1709 24.754 63.2169 24.5141C63.2629 24.2742 63.2553 24.0267 63.1947 23.7903C63.1321 23.5538 63.0181 23.3351 62.8611 23.151C62.7042 22.9669 62.5086 22.8221 62.2892 22.7278L54.2957 19.2184L55.3261 10.4609C55.3537 10.2194 55.3278 9.97457 55.2505 9.74484C55.1731 9.51511 55.0463 9.30643 54.8795 9.13447C54.7128 8.96252 54.5104 8.83175 54.2876 8.752C54.0648 8.67225 53.8274 8.64558 53.5932 8.67399L44.8503 9.72038L41.322 1.30097C41.2344 1.06873 41.0958 0.860607 40.917 0.692997C40.7382 0.525387 40.5241 0.402863 40.2915 0.335072C40.0623 0.272547 39.8222 0.264696 39.5896 0.312115C39.3569 0.359534 39.1378 0.460976 38.9489 0.608743L31.9546 6.08217L24.9447 0.721431C24.7545 0.576403 24.5348 0.477855 24.3022 0.433234C24.0696 0.388612 23.8302 0.399084 23.6021 0.463858C23.3743 0.526641 23.1632 0.641816 22.9848 0.800739C22.8063 0.959663 22.6651 1.1582 22.5717 1.38146L19.137 9.70428L10.4566 8.67399C10.2229 8.64738 9.98638 8.67554 9.7647 8.75638C9.54303 8.83722 9.34192 8.96864 9.1764 9.14084C9.0094 9.31152 8.88195 9.51888 8.80355 9.74746C8.72516 9.97603 8.69784 10.2199 8.72365 10.4609L9.76967 19.315L1.79182 22.8727C1.57531 22.969 1.38276 23.1146 1.22864 23.2986C1.07451 23.4827 0.962815 23.7003 0.901929 23.9352C0.846816 24.172 0.841999 24.4184 0.887808 24.6573C0.933617 24.8963 1.02897 25.1222 1.16734 25.3196L6.39743 32.5317L1.16734 39.7598C1.02669 39.956 0.931115 40.1825 0.887841 40.4224C0.844567 40.6622 0.854722 40.9091 0.91754 41.1443C0.978427 41.3792 1.09013 41.5968 1.24425 41.7808C1.39837 41.9648 1.59092 42.1104 1.80744 42.2067L9.75405 45.7323L8.6612 54.7312C8.63106 54.974 8.65499 55.2206 8.73118 55.4524C8.80737 55.6842 8.93381 55.895 9.10089 56.0689C9.26797 56.2427 9.47129 56.375 9.69539 56.4556C9.91948 56.5363 10.1585 56.5631 10.3942 56.5342L19.1682 55.4557L22.7122 63.7624C22.8056 63.9856 22.9468 64.1842 23.1253 64.3431C23.3037 64.502 23.5148 64.6172 23.7426 64.68C23.8775 64.6958 24.0136 64.6958 24.1485 64.68C24.4863 64.68 24.815 64.567 25.0853 64.358L32.0795 59.0134L39.0894 64.4063C39.2786 64.5496 39.4968 64.647 39.7276 64.6913C39.9584 64.7356 40.1959 64.7256 40.4224 64.6622C40.649 64.5988 40.8587 64.4835 41.0361 64.3249C41.2135 64.1663 41.3539 63.9685 41.4468 63.7463L44.8971 55.4718L53.5775 56.5342C53.8132 56.5631 54.0522 56.5363 54.2763 56.4556C54.5004 56.375 54.7037 56.2427 54.8708 56.0689C55.0379 55.895 55.1643 55.6842 55.2405 55.4524C55.3167 55.2206 55.3406 54.974 55.3105 54.7312L54.2801 45.6518L62.3516 42.0619C62.5681 41.9656 62.7607 41.8199 62.9148 41.6359C63.0689 41.4519 63.1806 41.2343 63.2415 40.9994C63.2966 40.7625 63.3014 40.5162 63.2556 40.2772C63.2098 40.0383 63.1145 39.8123 62.9761 39.6149L57.7304 32.4029ZM51.9851 43.1726C51.6853 43.3062 51.4336 43.5334 51.2656 43.8222C51.0975 44.111 51.0216 44.4468 51.0484 44.7825L52.0007 53.0248L44.1946 52.075C43.8691 52.0474 43.5434 52.1257 43.2633 52.299C42.9832 52.4723 42.7629 52.7318 42.6334 53.0409L39.5109 60.5427L33.1568 55.7132C32.8879 55.508 32.5623 55.3973 32.2278 55.3973C31.8934 55.3973 31.5677 55.508 31.2989 55.7132L24.9291 60.5427L21.8067 53.0248C21.6872 52.7338 21.4872 52.4856 21.2318 52.3109C20.9764 52.1363 20.6768 52.0431 20.3704 52.0428H20.183L12.2208 53.0087L13.1419 44.8308C13.1699 44.497 13.0962 44.1625 12.9311 43.8739C12.766 43.5853 12.5177 43.3571 12.2208 43.2209L5.00794 40.0013L9.69161 33.4493C9.89062 33.1721 9.99803 32.8363 9.99803 32.4914C9.99803 32.1465 9.89062 31.8108 9.69161 31.5336L5.00794 24.9655L12.2364 21.7458C12.5362 21.6122 12.7879 21.3851 12.9559 21.0963C13.1239 20.8075 13.1999 20.4716 13.1731 20.136L12.2208 12.0868L20.0269 13.0366C20.3542 13.063 20.6813 12.9823 20.9615 12.806C21.2418 12.6297 21.4611 12.3668 21.5881 12.0546L24.7106 4.50453L31.0647 9.33402C31.335 9.54301 31.6637 9.65599 32.0015 9.65599C32.3393 9.65599 32.6679 9.54301 32.9382 9.33402L39.2924 4.40794L42.4929 12.0385C42.6224 12.3477 42.8427 12.6072 43.1228 12.7804C43.4029 12.9537 43.7286 13.0321 44.0541 13.0044L51.9851 12.0546L51.0484 19.975C51.0041 20.3236 51.0717 20.6775 51.2409 20.9827C51.41 21.2879 51.6714 21.5277 51.9851 21.6653L59.2448 24.885L54.5611 31.437C54.3584 31.7156 54.2489 32.0546 54.2489 32.4029C54.2489 32.7512 54.3584 33.0901 54.5611 33.3688L59.3384 39.9208L51.9851 43.1726Z" fill="black"/>
<path d="M37.5438 34.1415C36.7719 34.1415 36.0172 34.3775 35.3754 34.8197C34.7335 35.262 34.2333 35.8905 33.9379 36.6259C33.6424 37.3613 33.5651 38.1705 33.7157 38.9512C33.8663 39.7319 34.2381 40.449 34.7839 41.0119C35.3298 41.5747 36.0252 41.958 36.7824 42.1133C37.5395 42.2686 38.3242 42.1889 39.0374 41.8843C39.7506 41.5797 40.3602 41.0638 40.7891 40.402C41.2179 39.7402 41.4469 38.962 41.4469 38.1661C41.4469 37.0987 41.0356 36.075 40.3037 35.3203C39.5717 34.5655 38.579 34.1415 37.5438 34.1415ZM37.5438 38.971C37.3368 38.971 37.1382 38.8862 36.9918 38.7352C36.8454 38.5843 36.7632 38.3795 36.7632 38.1661C36.7632 37.9526 36.8454 37.7478 36.9918 37.5969C37.1382 37.4459 37.3368 37.3611 37.5438 37.3611C37.7508 37.3611 37.9494 37.4459 38.0958 37.5969C38.2422 37.7478 38.3244 37.9526 38.3244 38.1661C38.3244 38.3795 38.2422 38.5843 38.0958 38.7352C37.9494 38.8862 37.7508 38.971 37.5438 38.971Z" fill="black"/>
<path d="M26.6153 30.9218C27.3872 30.9218 28.1418 30.6858 28.7837 30.2436C29.4255 29.8013 29.9258 29.1728 30.2212 28.4374C30.5166 27.702 30.5939 26.8928 30.4433 26.1121C30.2927 25.3314 29.921 24.6143 29.3751 24.0515C28.8293 23.4886 28.1338 23.1053 27.3767 22.95C26.6196 22.7947 25.8348 22.8744 25.1216 23.179C24.4084 23.4836 23.7989 23.9995 23.37 24.6613C22.9411 25.3232 22.7122 26.1013 22.7122 26.8973C22.7122 27.9646 23.1234 28.9883 23.8554 29.7431C24.5874 30.4978 25.5801 30.9218 26.6153 30.9218ZM26.6153 26.0923C26.8223 26.0923 27.0209 26.1771 27.1672 26.3281C27.3136 26.479 27.3959 26.6838 27.3959 26.8973C27.3959 27.1107 27.3136 27.3155 27.1672 27.4664C27.0209 27.6174 26.8223 27.7022 26.6153 27.7022C26.4082 27.7022 26.2097 27.6174 26.0633 27.4664C25.9169 27.3155 25.8347 27.1107 25.8347 26.8973C25.8347 26.6838 25.9169 26.479 26.0633 26.3281C26.2097 26.1771 26.4082 26.0923 26.6153 26.0923Z" fill="black"/>
<path d="M38.7772 23.3396L23.1649 39.4379C23.0204 39.588 22.9059 39.766 22.8281 39.9617C22.7503 40.1574 22.7106 40.367 22.7113 40.5785C22.712 40.79 22.7532 40.9993 22.8323 41.1945C22.9115 41.3896 23.0272 41.5668 23.1727 41.7158C23.3183 41.8648 23.4909 41.9829 23.6807 42.0631C23.8705 42.1434 24.0738 42.1843 24.2789 42.1835C24.4841 42.1828 24.687 42.1404 24.8763 42.0588C25.0655 41.9771 25.2373 41.8579 25.3819 41.7078L40.9941 25.6095C41.2849 25.3078 41.4481 24.8998 41.4481 24.4745C41.4481 24.0492 41.2849 23.6412 40.9941 23.3396C40.8489 23.1887 40.6763 23.0689 40.486 22.9872C40.2958 22.9055 40.0917 22.8634 39.8856 22.8634C39.6795 22.8634 39.4755 22.9055 39.2852 22.9872C39.095 23.0689 38.9223 23.1887 38.7772 23.3396Z" fill="black"/>
</svg>
