<svg width="73" height="73" viewBox="0 0 73 73" fill="none" xmlns="http://www.w3.org/2000/svg">
<g clip-path="url(#clip0_52_16)">
<path d="M61.1408 71.8474H65.3504C66.3688 71.8474 67.1947 71.0216 67.1947 70.0031V61.8984C67.1947 62.9169 66.3688 63.7427 65.3504 63.7427L5.80536 63.7427L5.80536 70.0031C5.80536 71.0216 6.63117 71.8474 7.64961 71.8474" fill="#E2453D"/>
<path d="M23.0783 71.8474H63.1769V63.7427L5.80536 63.7427L5.80536 70.0031C5.80536 71.0216 6.63117 71.8474 7.64961 71.8474H19.3386" fill="#D6E0E0"/>
<path d="M65.3504 1.15259L7.64961 1.15259C6.63117 1.15259 5.80536 1.9784 5.80536 2.99684L5.80536 63.7425L65.3504 63.7425C66.3688 63.7425 67.1947 62.9167 67.1947 61.8983V2.99684C67.1947 1.9784 66.3688 1.15259 65.3504 1.15259Z" fill="#FF6A5E"/>
<g opacity="0.2">
<path d="M9.41316 70.0031L9.41316 2.99684C9.41316 1.9784 10.2387 1.15259 11.2574 1.15259L7.64961 1.15259C6.63117 1.15259 5.80536 1.9784 5.80536 2.99684L5.80536 70.0031C5.80536 71.0216 6.63117 71.8474 7.64961 71.8474H11.2574C10.239 71.8474 9.41316 71.0216 9.41316 70.0031Z" fill="#020202"/>
</g>
<path d="M28.3163 39.3521V33.155L25.9033 37.7698H24.9144L22.5014 33.155V39.3521H20.6818V29.9904H22.6333L25.4022 35.3173L28.1974 29.9904H30.1356V39.3521H28.3163ZM38.5876 37.7567V39.3521H32.0872V29.9904L38.469 29.9904V31.5859L33.9069 31.5859V33.8408H37.8494V35.3173H33.9069V37.7567H38.5876ZM41.8311 33.3527V39.3521H40.0116V29.9904H41.4225L46.3011 36.1347V30.0034H48.1207V39.3518H46.6439L41.8311 33.3527ZM54.0277 37.8094C54.4583 37.8094 54.8209 37.7217 55.1154 37.5457C55.4099 37.3699 55.6471 37.1414 55.8275 36.8598C56.0076 36.5788 56.1352 36.2556 56.2099 35.8907C56.2844 35.526 56.3221 35.1503 56.3221 34.7634V29.9903H58.1285V34.7634C58.1285 35.4051 58.0514 36.0075 57.8977 36.57C57.7439 37.1325 57.5023 37.6248 57.1724 38.0465C56.8428 38.4686 56.4186 38.8026 55.9 39.0487C55.3813 39.2951 54.7617 39.4178 54.041 39.4178C53.2937 39.4178 52.6585 39.2882 52.1357 39.029C51.6126 38.7698 51.1884 38.4269 50.8633 38.0006C50.538 37.5745 50.303 37.0798 50.1577 36.5172C50.0129 35.9549 49.9403 35.3702 49.9403 34.7635V29.9904H51.7599V34.7634C51.7599 35.159 51.7971 35.5393 51.8719 35.904C51.9464 36.2689 52.074 36.5919 52.2542 36.8731C52.4321 37.1523 52.674 37.3851 52.9598 37.5522C53.2497 37.7236 53.6057 37.8094 54.0277 37.8094Z" fill="black"/>
<path d="M65.3504 0L7.64959 0C5.99711 0 4.65274 1.34437 4.65274 2.99685L4.65274 70.0032C4.65274 71.6556 5.99711 73 7.64959 73H19.3386C19.9752 73 20.4912 72.4842 20.4912 71.8474C20.4912 71.2106 19.975 70.6948 19.3386 70.6948H7.64959C7.46622 70.6946 7.29043 70.6216 7.16077 70.492C7.03111 70.3623 6.95817 70.1865 6.95794 70.0032L6.95794 64.8953H62.0243V70.6947H23.0783C22.4416 70.6947 21.9257 71.2105 21.9257 71.8473C21.9257 72.484 22.4418 73 23.0783 73L65.3504 73C67.0029 73 68.3472 71.6556 68.3472 70.0032V2.99685C68.3472 1.34437 67.0027 0 65.3504 0ZM6.95809 2.99685C6.95831 2.81348 7.03126 2.63769 7.16091 2.50803C7.29057 2.37837 7.46637 2.30543 7.64973 2.3052L11.388 2.3052L11.388 62.5899H6.95809L6.95809 2.99685ZM13.693 62.5901L13.693 2.3052L65.3501 2.3052C65.5335 2.30543 65.7093 2.37837 65.8389 2.50803C65.9686 2.63769 66.0415 2.81348 66.0417 2.99685V61.8984C66.0415 62.0818 65.9686 62.2576 65.8389 62.3873C65.7093 62.5169 65.5335 62.5899 65.3501 62.5901L13.693 62.5901ZM66.0419 70.0032C66.0417 70.1865 65.9687 70.3623 65.8391 70.492C65.7094 70.6216 65.5336 70.6946 65.3502 70.6948H64.3295V64.8954H65.3502C65.4443 64.8954 65.5372 64.8899 65.629 64.8813C65.6432 64.8799 65.6576 64.8792 65.6718 64.8776C65.775 64.8663 65.8775 64.8497 65.979 64.8279C66 64.8234 66.0211 64.8199 66.0419 64.8149V70.0032Z" fill="#020202"/>
<path d="M60.0905 67.795C60.0905 67.4893 59.9691 67.1962 59.7529 66.98C59.5368 66.7639 59.2436 66.6424 58.9379 66.6424H10.22C9.58337 66.6424 9.06738 67.1583 9.06738 67.795C9.06738 68.4318 9.58352 68.9476 10.22 68.9476H58.9379C59.2436 68.9476 59.5368 68.8262 59.7529 68.61C59.9691 68.3939 60.0905 68.1007 60.0905 67.795ZM52.9432 24.1767L45.4997 24.1767C45.0938 24.1777 44.6918 24.0983 44.3169 23.943C43.942 23.7876 43.6016 23.5595 43.3155 23.2717C43.1068 23.0642 42.9413 22.8173 42.8286 22.5454C42.716 22.2735 42.6584 21.9819 42.6592 21.6875C42.6592 21.089 42.8922 20.5262 43.3156 20.1031C43.4603 19.9576 43.6324 19.8423 43.822 19.7637C44.0115 19.6852 44.2147 19.645 44.4199 19.6455C44.8371 19.6455 45.2295 19.8081 45.5245 20.1032C45.6194 20.1976 45.6946 20.3099 45.7458 20.4335C45.797 20.5572 45.8232 20.6898 45.8227 20.8237C45.8227 21.096 45.7168 21.3519 45.5245 21.5441C45.4174 21.6511 45.3325 21.7781 45.2745 21.918C45.2166 22.0578 45.1867 22.2077 45.1867 22.3591C45.1867 22.5104 45.2165 22.6603 45.2744 22.8001C45.3324 22.94 45.4173 23.067 45.5243 23.1741C45.9744 23.624 46.7043 23.6243 47.1543 23.1742C47.464 22.8663 47.7095 22.5 47.8767 22.0965C48.0438 21.693 48.1293 21.2604 48.1281 20.8237C48.1293 20.3869 48.0439 19.9543 47.8769 19.5508C47.7098 19.1473 47.4643 18.781 47.1547 18.473C46.4243 17.7425 45.4532 17.3403 44.4201 17.3403C43.3869 17.3403 42.416 17.7427 41.6857 18.473C40.8269 19.3316 40.3542 20.4732 40.3542 21.6874C40.3542 22.9014 40.8269 24.0431 41.6856 24.9015C42.7043 25.9204 44.0588 26.4816 45.4997 26.4816H52.9434C53.5801 26.4816 54.096 25.9657 54.096 25.329C54.096 24.6922 53.58 24.1767 52.9432 24.1767ZM33.8054 17.3406C32.7724 17.3406 31.8012 17.7428 31.0708 18.4733C30.7611 18.7812 30.5156 19.1476 30.3485 19.5511C30.1814 19.9546 30.096 20.3872 30.0972 20.8239C30.0961 21.2607 30.1815 21.6933 30.3487 22.0968C30.5159 22.5003 30.7615 22.8666 31.0712 23.1745C31.1782 23.2815 31.3053 23.3664 31.4451 23.4244C31.5849 23.4823 31.7348 23.5121 31.8862 23.5121C32.0376 23.5121 32.1874 23.4822 32.3273 23.4243C32.4671 23.3663 32.5941 23.2814 32.7011 23.1743C32.8082 23.0673 32.8931 22.9403 32.951 22.8004C33.0089 22.6606 33.0387 22.5107 33.0387 22.3593C33.0387 22.208 33.0088 22.0581 32.9509 21.9183C32.893 21.7784 32.808 21.6514 32.701 21.5444C32.6061 21.45 32.5308 21.3377 32.4796 21.2141C32.4284 21.0904 32.4022 20.9578 32.4026 20.8239C32.4026 20.5518 32.5087 20.2958 32.7008 20.1035C32.996 19.8084 33.3881 19.6458 33.8054 19.6458C34.2224 19.6458 34.6147 19.8084 34.9098 20.1035C35.1186 20.311 35.2841 20.5579 35.3968 20.8299C35.5095 21.1018 35.5671 21.3934 35.5662 21.6878C35.5662 22.2862 35.3331 22.8488 34.9098 23.2722C34.6237 23.5599 34.2833 23.788 33.9085 23.9434C33.5336 24.0987 33.1316 24.1781 32.7258 24.177L25.2819 24.177C25.1306 24.1769 24.9807 24.2067 24.8408 24.2647C24.701 24.3226 24.5739 24.4075 24.4669 24.5145C24.3598 24.6215 24.275 24.7486 24.217 24.8884C24.1591 25.0283 24.1293 25.1782 24.1293 25.3296C24.1293 25.6352 24.2508 25.9284 24.4669 26.1446C24.6831 26.3607 24.9762 26.4822 25.2819 26.4822L32.7257 26.4822C34.1664 26.4822 35.5212 25.9211 36.5396 24.9022C37.3984 24.0436 37.8712 22.902 37.8712 21.688C37.8712 20.4738 37.3984 19.3321 36.5398 18.4737C35.8095 17.743 34.8384 17.3406 33.8054 17.3406ZM52.9432 42.9261L45.4997 42.9261C44.0588 42.9261 42.7043 43.4872 41.6857 44.506C40.8269 45.3646 40.3542 46.5063 40.3542 47.7203C40.3542 48.9345 40.8269 50.0761 41.6856 50.9346C42.416 51.665 43.3869 52.0674 44.4201 52.0674C45.4532 52.0674 46.4243 51.6652 47.1547 50.9347C47.4643 50.6267 47.7098 50.2604 47.8769 49.8569C48.0439 49.4534 48.1293 49.0208 48.1281 48.584C48.1293 48.1473 48.0439 47.7147 47.8767 47.3112C47.7095 46.9077 47.464 46.5414 47.1543 46.2335C47.0473 46.1265 46.9202 46.0415 46.7804 45.9836C46.6405 45.9257 46.4906 45.8959 46.3393 45.8959C46.1879 45.8959 46.038 45.9258 45.8982 45.9837C45.7584 46.0417 45.6313 46.1266 45.5243 46.2336C45.4173 46.3407 45.3324 46.4677 45.2744 46.6076C45.2165 46.7474 45.1867 46.8973 45.1867 47.0487C45.1867 47.2 45.2166 47.3499 45.2745 47.4897C45.3325 47.6296 45.4174 47.7566 45.5245 47.8636C45.6194 47.958 45.6946 48.0703 45.7458 48.1939C45.797 48.3176 45.8231 48.4502 45.8227 48.584C45.8231 48.7179 45.797 48.8505 45.7458 48.9741C45.6946 49.0978 45.6193 49.2101 45.5245 49.3045C45.3798 49.4501 45.2077 49.5655 45.0181 49.644C44.8285 49.7226 44.6251 49.7627 44.4199 49.7622C44.0029 49.7622 43.6105 49.5996 43.3155 49.3045C43.1068 49.097 42.9413 48.8501 42.8286 48.5781C42.7159 48.3061 42.6584 48.0145 42.6592 47.7202C42.6592 47.1218 42.8922 46.5592 43.3156 46.1358C43.6018 45.8481 43.9421 45.62 44.317 45.4647C44.6919 45.3094 45.0939 45.23 45.4997 45.231L52.9434 45.231C53.5801 45.231 54.096 44.7152 54.096 44.0784C54.096 43.4417 53.58 42.9261 52.9432 42.9261ZM32.7257 42.9261H25.2819C24.6453 42.9261 24.1293 43.442 24.1293 44.0787C24.1293 44.7155 24.6455 45.2313 25.2819 45.2313H32.7257C33.1315 45.2302 33.5334 45.3096 33.9083 45.465C34.2832 45.6203 34.6236 45.8485 34.9097 46.1363C35.1184 46.3438 35.2839 46.5907 35.3966 46.8626C35.5093 47.1345 35.5669 47.4261 35.5661 47.7205C35.5669 48.0148 35.5093 48.3065 35.3966 48.5785C35.284 48.8504 35.1184 49.0974 34.9097 49.3049C34.765 49.4504 34.5929 49.5657 34.4034 49.6443C34.2138 49.7228 34.0106 49.763 33.8054 49.7625C33.3882 49.7625 32.996 49.5999 32.7008 49.3048C32.5084 49.1123 32.4026 48.8567 32.4026 48.5843C32.4026 48.312 32.5087 48.0561 32.701 47.8639C32.808 47.7569 32.893 47.6298 32.9509 47.49C33.0088 47.3502 33.0387 47.2003 33.0387 47.0489C33.0387 46.8976 33.0089 46.7477 32.951 46.6079C32.8931 46.468 32.8082 46.341 32.7011 46.2339C32.5941 46.1269 32.4671 46.042 32.3272 45.984C32.1874 45.9261 32.0375 45.8963 31.8862 45.8962C31.7348 45.8962 31.5849 45.926 31.4451 45.984C31.3053 46.0419 31.1782 46.1268 31.0712 46.2338C30.7615 46.5417 30.516 46.908 30.3488 47.3115C30.1816 47.715 30.0961 48.1476 30.0972 48.5843C30.096 49.0211 30.1815 49.4537 30.3486 49.8572C30.5157 50.2607 30.7611 50.627 31.0708 50.935C31.8012 51.6654 32.7723 52.0677 33.8054 52.0677C34.8384 52.0677 35.8095 51.6653 36.5398 50.935C37.3985 50.0764 37.8713 48.9348 37.8713 47.7206C37.8713 46.5065 37.3985 45.3649 36.5399 44.5065C35.5212 43.4874 34.1666 42.9261 32.7257 42.9261ZM57.4779 24.1767H56.479C55.8423 24.1767 55.3264 24.6925 55.3264 25.3293C55.3264 25.966 55.8423 26.4819 56.479 26.4819H57.4779C58.1145 26.4819 58.6305 25.966 58.6305 25.3293C58.6305 24.6925 58.1145 24.1767 57.4779 24.1767ZM57.4779 42.9261H56.479C55.8423 42.9261 55.3264 43.442 55.3264 44.0787C55.3264 44.7155 55.8423 45.2313 56.479 45.2313H57.4779C58.1145 45.2313 58.6305 44.7155 58.6305 44.0787C58.6305 43.442 58.1145 42.9261 57.4779 42.9261ZM21.8345 24.1767H20.8356C20.199 24.1767 19.683 24.6925 19.683 25.3293C19.683 25.966 20.1992 26.4819 20.8356 26.4819H21.8345C22.4712 26.4819 22.9871 25.966 22.9871 25.3293C22.9871 24.6925 22.471 24.1767 21.8345 24.1767ZM21.8345 42.9261H20.8356C20.199 42.9261 19.683 43.442 19.683 44.0787C19.683 44.7155 20.1992 45.2313 20.8356 45.2313H21.8345C22.4712 45.2313 22.9871 44.7155 22.9871 44.0787C22.9871 43.442 22.471 42.9261 21.8345 42.9261Z" fill="#020202"/>
</g>
<defs>
<clipPath id="clip0_52_16">
<rect width="73" height="73" fill="white"/>
</clipPath>
</defs>
</svg>
