<svg width="34" height="34" viewBox="0 0 34 34" fill="none" xmlns="http://www.w3.org/2000/svg">
<g clip-path="url(#clip0_45_18)">
<g filter="url(#filter0_d_45_18)">
<path fill-rule="evenodd" clip-rule="evenodd" d="M20.5371 22.0362L27.9395 29.4387C28.3539 29.8531 29.0275 29.8531 29.4419 29.4387C29.8563 29.0243 29.8563 28.3507 29.4419 27.9363L22.0394 20.5339C23.5376 18.7021 24.4375 16.3614 24.4375 13.8125C24.4375 7.94856 19.6764 3.1875 13.8125 3.1875C7.94856 3.1875 3.1875 7.94856 3.1875 13.8125C3.1875 19.6764 7.94856 24.4375 13.8125 24.4375C16.3625 24.4375 18.7043 23.5376 20.5371 22.0362ZM19.8358 19.8082C21.3658 18.2707 22.3125 16.1511 22.3125 13.8125C22.3125 9.12156 18.5034 5.3125 13.8125 5.3125C9.12156 5.3125 5.3125 9.12156 5.3125 13.8125C5.3125 18.5034 9.12156 22.3125 13.8125 22.3125C16.1521 22.3125 18.2729 21.3647 19.8103 19.8326C19.8146 19.8284 19.8188 19.8241 19.8231 19.8199C19.8273 19.8156 19.8316 19.8124 19.8358 19.8082Z" fill="#FFEBE6"/>
<path d="M32.7364 11.7503L322.809 355.782C320.887 357.403 320.321 357.828 321.976 356.501C323.386 355.372 325.692 353.544 329.098 350.881C335.944 345.529 345.503 338.156 358.147 328.506L85.1366 -29.2165L-187.873 -386.939C-212.867 -367.865 -239.333 -347.461 -257.336 -332.282L32.7364 11.7503ZM85.1366 -29.2165L358.147 328.506C364.825 323.409 368.152 320.893 369.192 320.114C371.937 318.058 366.496 322.206 359.425 327.13C358.751 327.599 349.26 334.286 336.769 341.901C333.004 344.197 326.468 348.11 318.144 352.653C312.044 355.983 294.099 365.691 269.886 375.389C258.261 380.045 233.878 389.326 201.733 396.587C182.566 400.916 96.9046 420.689 -8.96245 393.6C-62.2929 376.351 -172.62 313.68 -225.295 265.855C-272.254 206.63 -330.729 79.0365 -343.723 15.1432C-360.707 -116.694 -313.737 -214.449 -304.776 -233.541C-277.703 -291.224 -243.802 -329.63 -241.053 -332.882C-230.775 -345.038 -222.032 -354.042 -217.923 -358.211C-209.232 -367.028 -202.085 -373.526 -199.628 -375.751C-193.749 -381.076 -189.053 -385.033 -187.885 -386.017C-181.635 -391.287 -181.564 -391.163 -204.225 -373.446L72.9373 -18.9306L350.099 335.585C362.372 325.99 381.943 310.745 392.26 302.047C393.682 300.847 398.572 296.724 404.584 291.277C407.107 288.992 414.307 282.445 423.034 273.591C427.162 269.403 435.919 260.383 446.207 248.215C448.968 244.95 482.876 206.534 509.952 148.844C518.914 129.749 565.885 31.9913 548.901 -99.8483C535.907 -163.743 477.431 -291.337 430.472 -350.562C377.796 -398.388 267.468 -461.06 214.137 -478.309C108.268 -505.399 22.6034 -485.626 3.43193 -481.295C-28.7173 -474.033 -53.1047 -464.751 -64.736 -460.092C-88.9609 -450.39 -106.921 -440.674 -113.041 -437.334C-121.384 -432.78 -127.943 -428.853 -131.735 -426.542C-144.334 -418.86 -153.993 -412.061 -154.894 -411.434C-162.878 -405.874 -170.197 -400.344 -170.293 -400.272C-174.937 -396.794 -181.152 -392.069 -187.873 -386.939L85.1366 -29.2165ZM72.9373 -18.9306L-204.225 -373.446C-221.829 -359.683 -231.982 -351.813 -236.323 -348.5C-248.042 -339.556 -231.072 -353.067 -211.825 -365.38C-210.162 -366.444 -190.528 -379.291 -163.952 -392.025C-162.246 -392.842 -106.335 -421.783 -29.8698 -432.125C-3.85914 -435.643 136.484 -455.346 278.273 -361.789C473.523 -232.954 489.43 -27.3521 476.758 71.1986C465.954 155.216 433.733 214.284 424.803 230.531C411.437 254.853 398.595 272.811 391.781 281.99C377.87 300.729 365.542 314.203 360.933 319.188C350.314 330.674 341.438 339.021 339.007 341.308C332.492 347.436 327.317 351.912 326.397 352.71C324.567 354.298 323.243 355.416 322.809 355.782L32.7364 11.7503L-257.336 -332.282C-258.787 -331.059 -260.959 -329.217 -263.469 -327.038C-265.069 -325.65 -270.757 -320.717 -277.615 -314.266C-280.218 -311.818 -289.224 -303.342 -299.931 -291.761C-304.583 -286.729 -316.945 -273.216 -330.879 -254.446C-337.704 -245.251 -350.554 -227.28 -363.927 -202.947C-372.863 -186.689 -405.088 -127.612 -415.892 -43.5873C-428.566 54.9705 -412.657 260.578 -217.402 389.415C-75.6092 482.976 64.7411 463.273 90.7614 459.754C167.246 449.409 223.187 420.457 224.933 419.621C251.59 406.849 271.346 393.929 273.173 392.76C283.978 385.848 292.319 379.827 293.729 378.816C296.845 376.581 299.442 374.662 301.029 373.483C304.285 371.064 307.37 368.722 309.697 366.946C318.756 360.032 332.77 349.133 350.099 335.585L72.9373 -18.9306ZM-4.61859 -117.359L438.396 -196.341C434.185 -219.958 430.231 -241.381 426.82 -258.175C425.37 -265.311 422.67 -278.37 419.135 -292.249C418.04 -296.551 413.216 -315.766 404.811 -338.758C402.438 -345.248 389.411 -381.943 363.4 -423.543C353.218 -439.827 316.486 -498.056 246.474 -548.997C162.275 -610.259 -23.6966 -689.976 -226.607 -584.068C-373.63 -507.329 -425.211 -379.442 -435.417 -354.306C-452.925 -311.183 -459.641 -275.093 -462.187 -260.103C-467.74 -227.401 -468.333 -201.299 -468.5 -193.589C-468.933 -173.545 -467.925 -157.333 -467.619 -152.422C-466.789 -139.108 -465.504 -126.597 -464.697 -119.061C-462.863 -101.943 -460.162 -80.1902 -457.011 -56.0026L-10.7821 -114.142L435.446 -172.282C432.501 -194.889 430.886 -208.366 430.185 -214.914C429.724 -219.21 430.188 -215.641 430.64 -208.377C430.758 -206.492 431.689 -192.583 431.29 -174.118C431.14 -167.197 430.592 -141.705 425.112 -109.432C422.603 -94.6558 415.93 -58.734 398.471 -15.7349C388.316 9.27666 336.792 137.086 189.833 213.79C-13.0126 319.665 -198.913 239.96 -283.033 178.755C-352.968 127.871 -389.614 69.7439 -399.704 53.6069C-425.532 12.3009 -438.347 -23.9192 -440.48 -29.7536C-448.405 -51.4338 -452.639 -68.6141 -453.032 -70.1592C-455.162 -78.5238 -456.013 -83.1779 -455.168 -79.0166C-453.99 -73.2178 -451.574 -60.483 -447.633 -38.378L-4.61859 -117.359ZM-10.7821 -114.142L-457.011 -56.0026C-450.729 -7.79246 -444.545 35.6293 -438.538 69.3232C-436.009 83.5072 -431.129 109.883 -423.349 137.533C-420.983 145.944 -410.247 185.182 -387.104 229.583C-378.558 245.977 -344.951 310.563 -274.938 368.808C-236.163 401.065 -168.493 446.194 -72.5089 464.834C32.2143 485.17 135.646 466.97 221.892 421.954L13.6723 23.0252L-194.548 -375.904C-108.558 -420.786 -5.39124 -438.945 99.0593 -418.662C194.771 -400.075 262.161 -355.092 300.647 -323.075C370.083 -265.31 403.082 -201.577 410.987 -186.411C432.851 -144.466 442.181 -109.179 443.014 -106.216C447.729 -89.4599 449.039 -79.9622 447.492 -88.6394C445.347 -100.668 441.359 -126.902 435.446 -172.282L-10.7821 -114.142ZM13.6723 23.0252L221.892 421.954C374.198 342.459 425.184 208.738 436.81 177.035C454.302 129.338 459.701 89.3773 461.684 72.4406C465.995 35.6018 464.906 5.51654 464.47 -5.21923C463.39 -31.7914 460.391 -56.6089 458.41 -71.8191C453.957 -105.996 446.845 -148.951 438.396 -196.341L-4.61859 -117.359L-447.633 -38.378C-439.779 5.67759 -435.691 31.8422 -434.047 44.4602C-432.98 52.6475 -434.206 45.6462 -434.789 31.3088C-434.976 26.6905 -436.137 1.32741 -432.214 -32.1846C-430.427 -47.4579 -425.301 -86.1037 -408.164 -132.835C-399.27 -157.087 -383.039 -194.97 -354.051 -236.186C-324.872 -277.672 -274.412 -334.219 -194.548 -375.904L13.6723 23.0252Z" fill="#FFEBE6"/>
</g>
</g>
<defs>
<filter id="filter0_d_45_18" x="-472.606" y="-635.81" width="1029.18" height="1116.92" filterUnits="userSpaceOnUse" color-interpolation-filters="sRGB">
<feFlood flood-opacity="0" result="BackgroundImageFix"/>
<feColorMatrix in="SourceAlpha" type="matrix" values="0 0 0 0 0 0 0 0 0 0 0 0 0 0 0 0 0 0 127 0" result="hardAlpha"/>
<feOffset dy="4"/>
<feGaussianBlur stdDeviation="2"/>
<feComposite in2="hardAlpha" operator="out"/>
<feColorMatrix type="matrix" values="0 0 0 0 0 0 0 0 0 0 0 0 0 0 0 0 0 0 0.25 0"/>
<feBlend mode="normal" in2="BackgroundImageFix" result="effect1_dropShadow_45_18"/>
<feBlend mode="normal" in="SourceGraphic" in2="effect1_dropShadow_45_18" result="shape"/>
</filter>
<clipPath id="clip0_45_18">
<rect width="34" height="34" fill="white"/>
</clipPath>
</defs>
</svg>
